<?xml version="1.0" encoding="utf-8"?>
<!-- Generator: Adobe Illustrator 24.3.0, SVG Export Plug-In . SVG Version: 6.00 Build 0)  -->
<svg version="1.0" id="katman_1" xmlns="http://www.w3.org/2000/svg" xmlns:xlink="http://www.w3.org/1999/xlink" x="0px" y="0px"
	 viewBox="0 0 189.78 213.33" style="enable-background:new 0 0 189.78 213.33;" xml:space="preserve">
<style type="text/css">
	.st0{fill:#6563FF;}
</style>
<path class="st0" d="M170.71,110.68c-1.25-1.43-2.57-2.86-3.96-4.3c0.97-1.02,1.91-2.04,2.82-3.06
	c17.12-19.24,24.35-38.55,17.65-50.14c-6.42-11.13-25.53-14.44-49.45-9.79c-2.35,0.46-4.7,0.98-7.03,1.56
	c-0.45-1.54-0.92-3.06-1.42-4.59C121.2,15.89,108.1-0.01,94.7,0C81.86,0,69.44,14.9,61.51,37.95c-0.78,2.28-1.5,4.57-2.17,6.87
	c-1.56-0.38-3.12-0.74-4.69-1.07C29.42,38.58,9.1,41.99,2.41,53.61C-4,64.74,2.7,82.94,18.71,101.31c1.59,1.81,3.23,3.59,4.91,5.33
	c-1.98,2.03-3.85,4.06-5.6,6.09C2.39,130.85-3.93,148.75,2.47,159.83c6.61,11.46,26.65,15.2,51.04,10.4
	c1.98-0.39,3.94-0.83,5.9-1.32c0.71,2.5,1.5,4.97,2.36,7.43c7.89,22.58,20.23,36.99,33.03,36.99c13.23,0,26.47-15.5,34.51-39.03
	c0.64-1.86,1.23-3.79,1.8-5.77c2.52,0.63,5.07,1.18,7.63,1.66c23.5,4.45,42.15,0.96,48.54-10.13
	C193.89,148.6,187.07,129.38,170.71,110.68L170.71,110.68z M10.3,58.15c4.12-7.15,20.73-9.94,42.52-5.46
	c1.39,0.28,2.81,0.6,4.26,0.96c-2.13,9.41-3.63,18.95-4.5,28.57c-7.86,5.53-15.35,11.55-22.43,18.05c-1.56-1.61-3.08-3.27-4.55-4.96
	C11.86,79.58,6.44,64.86,10.3,58.15z M51.76,119.25c-5.44-4.13-10.51-8.35-15.1-12.6c4.59-4.22,9.65-8.43,15.09-12.54
	c-0.2,4.19-0.3,8.38-0.29,12.58C51.47,110.88,51.57,115.07,51.76,119.25z M51.76,161.28c-9.25,2.06-18.79,2.4-28.16,1
	c-5.19-0.41-9.98-2.94-13.24-7.01c-3.89-6.72,1.18-21.1,14.55-36.59c1.68-1.94,3.41-3.83,5.21-5.67
	c7.08,6.53,14.59,12.59,22.47,18.13c0.88,9.73,2.39,19.4,4.54,28.93c-1.78,0.45-3.57,0.85-5.39,1.22L51.76,161.28z M127.5,75.53
	c-3.58-2.25-7.2-4.43-10.86-6.54c-3.61-2.08-7.26-4.08-10.95-6.01c6.33-2.66,12.54-4.93,18.55-6.77
	C125.65,62.59,126.74,69.04,127.5,75.53L127.5,75.53z M70.14,40.91C76.93,21.17,86.98,9.12,94.72,9.12
	c8.25-0.01,18.95,12.99,25.96,34.1c0.46,1.38,0.88,2.77,1.28,4.16c-9.2,2.85-18.2,6.31-26.94,10.35
	c-8.71-4.09-17.69-7.58-26.88-10.46C68.76,45.13,69.42,43.01,70.14,40.91z M65.88,56.1c6.26,1.97,12.42,4.26,18.45,6.85
	C76.85,66.8,69.57,71,62.48,75.54C63.34,68.74,64.48,62.22,65.88,56.1L65.88,56.1z M62.5,137.8c3.53,2.27,7.12,4.45,10.76,6.54
	c3.71,2.13,7.47,4.18,11.27,6.14c-6.08,2.68-12.28,5.05-18.6,7.09c-1.47-6.53-2.61-13.12-3.43-19.77V137.8z M120.69,171.36
	c-2.84,9.03-7.31,17.47-13.21,24.89c-2.94,4.3-7.53,7.18-12.67,7.98c-7.78,0-17.69-11.57-24.43-30.89c-0.8-2.28-1.53-4.59-2.2-6.91
	c9.23-2.98,18.24-6.58,26.99-10.77c8.82,4.07,17.89,7.56,27.17,10.44C121.83,167.86,121.28,169.62,120.69,171.36L120.69,171.36z
	 M124.55,157.24c-6.07-1.88-12.37-4.19-18.79-6.89c3.62-1.9,7.26-3.91,10.93-6.03c3.77-2.18,7.44-4.41,11.01-6.69
	C126.99,144.22,125.94,150.76,124.55,157.24L124.55,157.24z M129.32,106.65c0,6.48-0.2,12.95-0.61,19.41
	c-5.26,3.56-10.81,7.04-16.58,10.37c-5.76,3.32-11.45,6.37-17.03,9.13c-5.88-2.82-11.65-5.85-17.3-9.11
	c-5.62-3.24-11.11-6.68-16.47-10.34c-0.5-6.47-0.75-12.95-0.75-19.43c0-6.48,0.24-12.95,0.73-19.42
	C72.03,79.93,83.29,73.43,95,67.81c5.8,2.82,11.5,5.85,17.1,9.08c5.62,3.23,11.13,6.64,16.53,10.23
	C129.09,93.61,129.32,100.12,129.32,106.65z M139.52,52.32c20.5-3.98,35.95-1.3,39.82,5.41c4.13,7.15-1.78,22.91-16.58,39.53
	c-0.82,0.92-1.66,1.84-2.54,2.76c-7.21-6.51-14.85-12.53-22.87-18.01c-0.81-9.5-2.25-18.94-4.32-28.26
	C135.24,53.22,137.4,52.74,139.52,52.32L139.52,52.32z M138.13,93.76c5.41,3.95,10.62,8.18,15.59,12.67
	c-4.95,4.56-10.14,8.86-15.54,12.89c0.16-4.22,0.25-8.45,0.25-12.67C138.43,102.35,138.33,98.06,138.13,93.76z M179.4,155.51
	c-3.88,6.73-18.86,9.54-38.97,5.74c-2.3-0.43-4.66-0.95-7.08-1.56c2.02-9.43,3.4-18.99,4.13-28.61
	c8.01-5.57,15.62-11.68,22.79-18.29c1.26,1.3,2.45,2.6,3.58,3.88c6.41,6.97,11.48,15.06,14.97,23.87
	C181.08,145.24,181.29,150.66,179.4,155.51L179.4,155.51z M85.33,90.01c-9.11,5.26-12.23,16.91-6.97,26.02
	c5.26,9.11,16.91,12.23,26.02,6.97c9.11-5.26,12.23-16.91,6.97-26.02C106.1,87.87,94.45,84.74,85.33,90.01
	C85.34,90,85.33,90,85.33,90.01z"/>
</svg>
